<svg width="80" height="80" viewBox="0 0 80 80" fill="none" xmlns="http://www.w3.org/2000/svg">
<g id="love 1">
<g id="Group">
<path id="Vector" d="M62.9408 16.5625C62.9408 11.1256 59.383 2.5 49.8361 2.5C45.9136 2.5 42.6141 4.34922 40.0002 8.00453C37.3863 4.34922 34.0866 2.5 30.1643 2.5C20.6172 2.5 17.0596 11.1256 17.0596 16.5625C17.0596 25.9364 24.3755 31.8 34.37 40.3464C35.8386 41.602 37.3572 42.9006 38.9763 44.3053C39.27 44.5602 39.635 44.6875 40.0002 44.6875C40.3654 44.6875 40.7304 44.5602 41.0241 44.3053C42.6432 42.9006 44.1618 41.602 45.6304 40.3464C56.0938 31.3991 62.9408 25.7383 62.9408 16.5625ZM40.0002 41.0588C38.7516 39.9813 37.5608 38.963 36.401 37.9711C25.9444 29.03 20.1846 24.1047 20.1846 16.5625C20.1846 11.4464 23.5316 5.625 30.1643 5.625C33.6257 5.625 36.3946 7.6125 38.6293 11.7009C38.9032 12.2022 39.4289 12.5141 40.0002 12.5141C40.5714 12.5141 41.0972 12.2022 41.3711 11.7009C43.6058 7.6125 46.3747 5.625 49.8361 5.625C56.3761 5.625 59.8158 11.36 59.8158 16.5625C59.8158 24.1047 54.056 29.03 43.5994 37.9713C42.4396 38.963 41.2488 39.9813 40.0002 41.0588Z" fill="url(#paint0_linear_34105_962)"/>
<path id="Vector_2" d="M11.2278 63.7678L18.75 67.5283V75.9375C18.75 76.8003 19.4497 77.5 20.3125 77.5H36.875C37.7378 77.5 38.4375 76.8003 38.4375 75.9375V55.5391C38.4375 50.7519 34.8464 46.782 30.0961 46.3058L29.9683 46.292C27.2188 46.0164 22.3503 44.1358 20.428 42.2136L16.9189 38.7059C15.7381 37.5253 14.1689 36.875 12.5 36.875V24.375C12.5 20.9288 9.69625 18.125 6.25 18.125C2.80375 18.125 0 20.9288 0 24.375V45.6C0 53.2897 4.34344 60.3248 11.2278 63.7678ZM3.125 24.375C3.125 22.6519 4.52688 21.25 6.25 21.25C7.97312 21.25 9.375 22.6519 9.375 24.375V37.7127C7.46938 38.8145 6.25 40.8689 6.25 43.125C6.25 44.7939 6.90031 46.3631 8.08109 47.5438L16.0827 55.5469C16.6927 56.1572 17.682 56.1572 18.2923 55.547C18.9025 54.937 18.9027 53.9477 18.2925 53.3373L10.2909 45.3341C9.70016 44.7436 9.375 43.9591 9.375 43.125C9.375 41.8025 10.212 40.6181 11.4581 40.178C11.4583 40.178 11.4586 40.1778 11.4587 40.1777C11.4591 40.1775 11.4595 40.1775 11.4598 40.1773C12.5377 39.7948 13.8161 40.0227 14.7094 40.9161L18.2184 44.4238C21.8412 48.0466 29.7564 49.4097 29.7722 49.4141C32.9306 49.7306 35.3123 52.3639 35.3123 55.5391V74.375H21.8748V66.5625C21.8748 65.9706 21.5403 65.4295 21.0111 65.165L12.6253 60.9728C6.76547 58.042 3.125 52.1516 3.125 45.6V24.375Z" fill="url(#paint1_linear_34105_962)"/>
<path id="Vector_3" d="M71.7188 61.5625C72.5817 61.5625 73.2812 60.8629 73.2812 60C73.2812 59.1371 72.5817 58.4375 71.7188 58.4375C70.8558 58.4375 70.1562 59.1371 70.1562 60C70.1562 60.8629 70.8558 61.5625 71.7188 61.5625Z" fill="url(#paint2_linear_34105_962)"/>
<path id="Vector_4" d="M73.75 18.125C70.3037 18.125 67.5 20.9288 67.5 24.375V36.875C65.8311 36.875 64.2619 37.5253 63.0814 38.7059L59.5717 42.2139C57.6497 44.1359 52.7812 46.0166 50.0195 46.2933L49.9161 46.3045C45.1536 46.782 41.5625 50.752 41.5625 55.5391V75.9375C41.5625 76.8003 42.2622 77.5 43.125 77.5H59.6875C60.5503 77.5 61.25 76.8003 61.25 75.9375V67.5283L66.3641 64.9717C67.1358 64.5858 67.4487 63.6473 67.063 62.8755C66.677 62.1038 65.7384 61.7905 64.9667 62.1766L58.9888 65.165C58.4595 65.4295 58.125 65.9706 58.125 66.5625V74.375H44.6875V55.5391C44.6875 52.3639 47.0692 49.7306 50.2398 49.4128L50.3433 49.4016C53.7325 49.0617 59.3442 46.8608 61.7811 44.4239L65.2908 40.9159C66.1866 40.0198 67.4675 39.7969 68.54 40.1773C68.5403 40.1775 68.5408 40.1775 68.5411 40.1777C68.5412 40.1777 68.5416 40.1778 68.5417 40.178C69.788 40.6181 70.625 41.8025 70.625 43.125C70.625 43.9591 70.2998 44.7436 69.7092 45.3344L61.7077 53.3375C61.0975 53.9477 61.0977 54.937 61.7078 55.5472C62.3177 56.1573 63.3073 56.1573 63.9175 55.547L71.9191 47.5441C73.0997 46.3631 73.75 44.7939 73.75 43.125C73.75 40.8689 72.5306 38.8145 70.625 37.7127V24.375C70.625 22.6519 72.0269 21.25 73.75 21.25C75.4731 21.25 76.875 22.6519 76.875 24.375V45.6C76.875 48.4587 76.1536 51.2969 74.7886 53.8075C74.3763 54.5658 74.6567 55.5144 75.415 55.9266C76.173 56.3387 77.122 56.0586 77.5341 55.3002C79.1473 52.3328 80 48.9786 80 45.6V24.375C80 20.9288 77.1963 18.125 73.75 18.125Z" fill="url(#paint3_linear_34105_962)"/>
</g>
</g>
<defs>
<linearGradient id="paint0_linear_34105_962" x1="8.49268" y1="2.5" x2="70.5134" y2="22.9753" gradientUnits="userSpaceOnUse">
<stop stop-color="#4BD8B5"/>
<stop offset="1" stop-color="#49D6DF"/>
</linearGradient>
<linearGradient id="paint1_linear_34105_962" x1="-7.177" y1="18.125" x2="48.302" y2="29.0274" gradientUnits="userSpaceOnUse">
<stop stop-color="#4BD8B5"/>
<stop offset="1" stop-color="#49D6DF"/>
</linearGradient>
<linearGradient id="paint2_linear_34105_962" x1="69.5728" y1="58.4375" x2="73.8622" y2="59.7396" gradientUnits="userSpaceOnUse">
<stop stop-color="#4BD8B5"/>
<stop offset="1" stop-color="#49D6DF"/>
</linearGradient>
<linearGradient id="paint3_linear_34105_962" x1="34.3855" y1="18.125" x2="89.8645" y2="29.0274" gradientUnits="userSpaceOnUse">
<stop stop-color="#4BD8B5"/>
<stop offset="1" stop-color="#49D6DF"/>
</linearGradient>
</defs>
</svg>
