<svg width="30" height="30" viewBox="0 0 30 30" fill="none" xmlns="http://www.w3.org/2000/svg">
<path d="M6.6663 16.1706L20.0167 29.5207C20.3255 29.8298 20.7376 30 21.1772 30C21.6167 30 22.0289 29.8298 22.3376 29.5207L23.3208 28.5378C23.9605 27.8973 23.9605 26.8564 23.3208 26.2169L12.1102 15.0062L23.3332 3.78314C23.642 3.47412 23.8125 3.06217 23.8125 2.6229C23.8125 2.18315 23.642 1.7712 23.3332 1.46194L22.3501 0.479263C22.0411 0.17024 21.6291 0 21.1896 0C20.7501 0 20.3379 0.17024 20.0291 0.479263L6.6663 13.8416C6.35679 14.1516 6.18679 14.5655 6.18777 15.0055C6.18679 15.4472 6.35679 15.8608 6.6663 16.1706Z" fill="#828282"/>
</svg>
