<svg width="57" height="57" viewBox="0 0 57 57" fill="none" xmlns="http://www.w3.org/2000/svg">
<g id="Group">
<path id="Vector" d="M2.25669 48.2315C2.25669 48.8425 1.76133 49.3379 1.15032 49.3379C0.539305 49.3379 0.0439453 48.8425 0.0439453 48.2315C0.0439453 47.6205 0.539305 47.1251 1.15032 47.1251C1.76133 47.1251 2.25669 47.6205 2.25669 48.2315ZM41.0298 30.1017C39.4871 31.2606 37.6519 31.873 35.7224 31.873C35.1001 31.873 34.525 31.6665 34.0623 31.3183C33.5996 31.6665 33.0246 31.873 32.4023 31.873C30.3979 31.873 28.5059 31.2169 26.9309 29.9757C26.4509 29.5973 26.3684 28.9015 26.7467 28.4214C27.1249 27.9415 27.8207 27.8588 28.3008 28.2372C29.4817 29.1678 30.8998 29.6596 32.4023 29.6596C32.7074 29.6596 32.9556 29.4114 32.9556 29.1063V27.3061C31.0485 26.8134 29.6355 25.0783 29.6355 23.0194C29.6355 21.7989 30.6284 20.806 31.8489 20.806H36.2757C37.4962 20.806 38.4891 21.7989 38.4891 23.0194C38.4891 25.0783 37.0762 26.8134 35.169 27.3061V29.1063C35.169 29.4114 35.4172 29.6596 35.7224 29.6596C37.1686 29.6596 38.5442 29.2006 39.7004 28.3321C40.1891 27.9648 40.8829 28.0635 41.2499 28.5522C41.617 29.041 41.5185 29.7348 41.0298 30.1017ZM34.0623 25.2328C35.2828 25.2328 36.2757 24.2399 36.2757 23.0194H31.8489C31.8489 24.2399 32.8418 25.2328 34.0623 25.2328ZM30.2433 16.8136L28.6067 19.6482C27.0258 22.2518 24.027 22.5838 21.9963 21.4194C19.9846 20.2659 19.2975 17.6829 20.457 15.6747L21.9829 13.0317C23.3474 10.6682 26.3807 9.85529 28.7445 11.22C30.6998 12.3489 31.3721 14.8581 30.2433 16.8136ZM26.6899 18.5415L27.368 17.3669H26.5084C25.0348 17.3669 25.0348 15.1535 26.5084 15.1535H28.5371C28.6994 14.379 28.3659 13.5417 27.6377 13.1368C26.2975 12.3915 24.6624 12.827 23.8996 14.1385L22.3737 16.7814C21.8245 17.7327 22.1549 18.9477 23.1029 19.5026C24.6161 20.3883 26.2065 19.4672 26.6899 18.5415ZM46.1282 21.4194C43.9476 22.6588 41.0166 22.1555 39.5178 19.6482L37.8812 16.8136C36.7523 14.8581 37.4247 12.3489 39.38 11.22C41.7439 9.85529 44.7771 10.6682 46.1416 13.0317L47.6675 15.6747C48.827 17.6829 48.1443 20.2736 46.1282 21.4194ZM45.7507 16.7814L44.2248 14.1385C43.4704 12.8318 41.7935 12.3824 40.4867 13.1368C39.7651 13.5533 39.4249 14.379 39.5873 15.1535H41.616C43.0896 15.1535 43.0896 17.3669 41.616 17.3669H40.7564L41.4345 18.5415C41.9875 19.5423 43.5262 20.3455 45.0214 19.5026C45.9785 18.9632 46.3 17.7326 45.7507 16.7814ZM52.821 15.7317C54.8663 20.0136 54.6872 24.9307 52.2801 29.1C51.8048 29.923 51.2603 30.6848 50.6571 31.3814C52.5541 38.375 52.6881 45.7639 51.0393 52.7922C50.5659 54.8108 48.7923 56.2205 46.7262 56.2205H44.2949C40.6438 56.2205 37.0732 55.3897 33.8393 53.8251C33.0008 54.911 31.404 56.2205 29.0202 56.2205H8.22967C6.07702 56.2205 3.77442 55.3404 2.13727 53.4991C1.73211 53.0434 1.77372 52.3492 2.22249 51.9364C2.69981 51.4973 3.4102 51.6026 3.78515 52.0216C4.91609 53.2853 6.53973 54.0071 8.23188 54.0071H10.4924C8.52283 51.3832 7.76142 47.9596 8.60074 44.7162C10.0445 39.1371 14.6117 36.8598 17.9082 36.3865C16.3576 33.1758 15.1988 29.7752 14.4766 26.2614C8.10771 29.9337 3.80441 36.1236 2.58327 43.4524C2.49363 43.9892 1.99296 44.4609 1.30946 44.3632C0.734859 44.281 0.293507 43.7135 0.39975 43.0893C2.2351 32.3069 9.41528 26.4556 14.0484 23.9619C13.6397 21.1912 14.0559 18.3435 15.3035 15.7317C13.2117 14.1404 11.948 11.6395 11.948 8.98011C11.948 4.30585 15.7507 0.502996 20.425 0.502996C22.3066 0.502996 24.1086 1.1212 25.5846 2.25712C28.1001 0.796162 31.0007 0 34.0623 0C37.124 0 40.0247 0.796051 42.54 2.25712C44.016 1.12131 45.818 0.503107 47.6995 0.503107C52.3738 0.503107 56.1765 4.30585 56.1765 8.98022C56.1765 11.6394 54.9128 14.1404 52.821 15.7317ZM16.3857 13.7631L19.4667 8.42676C20.5656 6.52334 21.9797 4.89826 23.6228 3.59623C22.6628 3.02395 21.5639 2.7164 20.4252 2.7164C16.9714 2.7164 14.1616 5.52632 14.1616 8.98011C14.1615 10.8338 14.9932 12.5833 16.3857 13.7631ZM31.8569 52.7473C30.6811 52.0348 29.5616 51.2196 28.5137 50.3047C24.661 46.9404 21.454 42.9389 19.0129 38.5216C15.1145 38.6641 11.696 41.4112 10.7496 45.2464C9.96088 48.4425 11.0349 51.8382 13.4899 54.0071H29.0212C30.1237 54.0071 31.1426 53.541 31.8569 52.7473ZM44.2949 54.0071C45.2275 54.0071 45.5726 53.0492 45.3065 52.4492C42.5875 46.3173 38.6473 40.8609 33.6599 36.2998H28.3149C24.652 36.2998 21.2595 34.9657 18.663 32.6054C21.0777 38.7274 24.9473 44.2519 29.9697 48.6376C33.935 52.1002 39.0224 54.0071 44.2949 54.0071ZM48.8245 33.1515C46.3214 35.1704 43.1799 36.2998 39.8096 36.2998H36.8609C37.9841 37.4251 39.0495 38.596 40.0558 39.811C40.084 39.655 40.1133 39.4994 40.1445 39.3443C40.2654 38.7451 40.8493 38.3572 41.4481 38.4782C42.0473 38.599 42.4351 39.1826 42.3142 39.7817C42.1488 40.6022 42.0331 41.4349 41.9633 42.2635C44.0649 45.1454 45.8583 48.2471 47.3285 51.5489C47.6612 52.2962 47.7025 53.1217 47.4669 53.8802C48.163 53.6336 48.7063 53.0459 48.8844 52.2867C50.3563 46.0127 50.3307 39.4355 48.8245 33.1515ZM50.3633 15.8071L46.7411 9.53346C44.0947 4.94995 39.355 2.2134 34.0623 2.2134C28.7696 2.2134 24.0298 4.94995 21.3835 9.53358L17.7614 15.8072C15.5586 19.6226 15.5586 24.1782 17.7614 27.9935C19.9641 31.8086 23.9093 34.0864 28.3149 34.0864H39.8096C44.2152 34.0864 48.1605 31.8086 50.3631 27.9933C52.5659 24.1781 52.5659 19.6225 50.3633 15.8071ZM53.9631 8.98022C53.9631 5.52643 51.1533 2.71651 47.6995 2.71651C46.561 2.71651 45.462 3.02406 44.5021 3.59623C46.1451 4.89826 47.559 6.52323 48.6579 8.42676L51.7389 13.7631C53.1313 12.5834 53.9631 10.8338 53.9631 8.98022Z" fill="url(#paint0_linear_34120_297)"/>
</g>
<defs>
<linearGradient id="paint0_linear_34120_297" x1="-10.4371" y1="-2.95567e-07" x2="66.6315" y2="23.3583" gradientUnits="userSpaceOnUse">
<stop stop-color="#4BD8B5"/>
<stop offset="1" stop-color="#49D6DF"/>
</linearGradient>
</defs>
</svg>
