<svg width="60" height="60" viewBox="0 0 60 60" fill="none" xmlns="http://www.w3.org/2000/svg">
<g id="zoo (1) 1" clip-path="url(#clip0_34120_1364)">
<g id="Group">
<g id="Group_2">
<g id="Group_3">
<path id="Vector" d="M8.20312 38.2031C7.55625 38.2031 7.03125 38.7281 7.03125 39.375C7.03125 40.0219 7.55625 40.5469 8.20312 40.5469C8.85 40.5469 9.375 40.0219 9.375 39.375C9.375 38.7281 8.85 38.2031 8.20312 38.2031Z" fill="url(#paint0_linear_34120_1364)"/>
<path id="Vector_2" d="M57.6562 54.1432V10.5445C59.1161 9.44566 60 7.70848 60 5.85938C60 2.62852 57.3715 0 54.1406 0C50.9098 0 48.2812 2.62852 48.2812 5.85938C48.2812 6.81234 48.518 7.73484 48.9451 8.55668C43.1437 5.96133 36.6686 4.60137 30 4.60137C23.3313 4.60137 16.8561 5.96133 11.0549 8.55668C11.482 7.73484 11.7188 6.81234 11.7188 5.85938C11.7188 2.62852 9.09023 0 5.85938 0C2.62852 0 0 2.62852 0 5.85938C0 7.70848 0.883945 9.44566 2.34375 10.5445V54.1431C0.849727 55.2669 0 56.9846 0 58.8281C0 59.4754 0.524648 59.9883 1.17188 59.9883H10.5382C10.5411 59.9883 10.5442 59.9886 10.5471 59.9886C11.0532 59.9886 11.5079 59.6699 11.663 59.1852L11.6636 59.1833C11.6647 59.1795 11.666 59.1757 11.6672 59.1718L22.8713 24.1484C27.5501 23.1118 32.4493 23.1118 37.1283 24.1484L48.3325 59.1718C48.3336 59.1757 48.3349 59.1795 48.3361 59.1833L48.3367 59.1853C48.489 59.6618 48.9391 59.9888 49.4525 59.9888C49.4555 59.9888 49.4585 59.9884 49.4614 59.9884H58.8281C59.4752 59.9884 60 59.4755 60 58.8282C60 56.9844 59.1499 55.2667 57.6562 54.1432ZM5.85938 2.34375C7.79789 2.34375 9.375 3.92086 9.375 5.85938C9.375 7.1107 8.70105 8.27789 7.6173 8.90496C7.08457 9.21246 6.47672 9.375 5.85938 9.375C5.24227 9.375 4.63477 9.21258 4.10215 8.90543C3.01758 8.27766 2.34375 7.11047 2.34375 5.85938C2.34375 3.92086 3.92086 2.34375 5.85938 2.34375ZM2.5432 57.6562C3.02813 56.2825 4.34004 55.3125 5.85938 55.3125C7.40074 55.3125 8.69859 56.305 9.17555 57.6562H2.5432ZM10.4718 55.217C10.148 54.8052 9.80426 54.4659 9.375 54.1432V44.0625C9.375 43.4153 8.85035 42.8906 8.20312 42.8906C7.5559 42.8906 7.03125 43.4153 7.03125 44.0625V53.0879C6.64687 53.0095 6.2543 52.9688 5.85938 52.9688C5.46445 52.9688 5.07199 53.0095 4.6875 53.088V11.5996C5.07188 11.678 5.46445 11.7188 5.85938 11.7188C6.2543 11.7188 6.64687 11.678 7.03125 11.5996V34.6875C7.03125 35.3347 7.5559 35.8594 8.20312 35.8594C8.85035 35.8594 9.375 35.3347 9.375 34.6875V30.8292C12.4806 28.1648 16.1759 26.1295 20.1804 24.8681L10.4718 55.217ZM50.625 54.1431C50.1877 54.472 49.8458 54.8132 49.5282 55.217L39.8195 24.8682C43.8239 26.1296 47.5193 28.165 50.625 30.8293V54.1431ZM50.625 19.388C49.6391 18.8202 48.6292 18.2939 47.6051 17.8159C47.0181 17.5418 46.3212 17.7957 46.0474 18.382C45.7737 18.9684 46.0271 19.6658 46.6136 19.9396C47.9866 20.5806 49.3332 21.3131 50.6249 22.121V27.8209C38.618 18.7423 21.3353 18.7777 9.375 27.8208V22.121C10.6666 21.3131 12.0134 20.5806 13.3863 19.9396C13.9727 19.6658 14.2262 18.9684 13.9525 18.382C13.6787 17.7954 12.9811 17.5421 12.3949 17.8159C11.3708 18.294 10.3608 18.8202 9.375 19.388V11.9916C21.8026 5.31199 38.1971 5.31199 50.625 11.9916V19.388ZM54.1406 2.34375C56.0791 2.34375 57.6562 3.92086 57.6562 5.85938C57.6562 7.1107 56.9823 8.27789 55.8986 8.90496C55.3658 9.21246 54.7581 9.375 54.1406 9.375C53.5236 9.375 52.9161 9.2127 52.3838 8.90555C51.2989 8.27789 50.625 7.1107 50.625 5.85938C50.625 3.92086 52.2021 2.34375 54.1406 2.34375ZM55.3125 11.5996V53.0879C54.9281 53.0095 54.5357 52.9688 54.1406 52.9688C53.7457 52.9688 53.3531 53.0095 52.9688 53.088V11.5996C53.3531 11.678 53.7456 11.7188 54.1406 11.7188C54.5355 11.7188 54.9281 11.678 55.3125 11.5996ZM50.8245 57.6562C51.3103 56.2794 52.6245 55.3125 54.1406 55.3125C55.6823 55.3125 56.9801 56.3054 57.4568 57.6562H50.8245Z" fill="url(#paint1_linear_34120_1364)"/>
<path id="Vector_3" d="M22.9688 16.4062H21.1104L23.7974 13.7193C24.1325 13.3841 24.2327 12.88 24.0513 12.4421C23.87 12.0043 23.4427 11.7188 22.9688 11.7188H18.2813C17.634 11.7188 17.1094 12.2434 17.1094 12.8906C17.1094 13.5379 17.634 14.0625 18.2813 14.0625H20.1396L17.4526 16.7495C17.1175 17.0846 17.0173 17.5888 17.1987 18.0266C17.3801 18.4645 17.8073 18.75 18.2814 18.75H22.9689C23.6161 18.75 24.1407 18.2254 24.1407 17.5781C24.1407 16.9309 23.616 16.4062 22.9688 16.4062Z" fill="url(#paint2_linear_34120_1364)"/>
<path id="Vector_4" d="M26.4844 15.2344C26.4844 17.1729 28.0615 18.75 30 18.75C31.9385 18.75 33.5156 17.1729 33.5156 15.2344C33.5156 13.2959 31.9385 11.7188 30 11.7188C28.0615 11.7188 26.4844 13.2959 26.4844 15.2344ZM30 14.0625C30.6462 14.0625 31.1719 14.5882 31.1719 15.2344C31.1719 15.8805 30.6462 16.4062 30 16.4062C29.3538 16.4062 28.8281 15.8805 28.8281 15.2344C28.8281 14.5882 29.3538 14.0625 30 14.0625Z" fill="url(#paint3_linear_34120_1364)"/>
<path id="Vector_5" d="M39.375 18.75C41.3135 18.75 42.8906 17.1729 42.8906 15.2344C42.8906 13.2959 41.3135 11.7188 39.375 11.7188C37.4365 11.7188 35.8594 13.2959 35.8594 15.2344C35.8594 17.1729 37.4365 18.75 39.375 18.75ZM39.375 14.0625C40.0212 14.0625 40.5469 14.5882 40.5469 15.2344C40.5469 15.8805 40.0212 16.4062 39.375 16.4062C38.7288 16.4062 38.2031 15.8805 38.2031 15.2344C38.2031 14.5882 38.7288 14.0625 39.375 14.0625Z" fill="url(#paint4_linear_34120_1364)"/>
<path id="Vector_6" d="M30 28.8281C29.3529 28.8281 28.8281 29.3528 28.8281 30V34.6875C28.8281 35.3347 29.3529 35.8594 30 35.8594C30.6471 35.8594 31.1719 35.3347 31.1719 34.6875V30C31.1719 29.3528 30.6471 28.8281 30 28.8281Z" fill="url(#paint5_linear_34120_1364)"/>
<path id="Vector_7" d="M30 40.5469C29.3529 40.5469 28.8281 41.0715 28.8281 41.7188V46.4062C28.8281 47.0535 29.3529 47.5781 30 47.5781C30.6471 47.5781 31.1719 47.0535 31.1719 46.4062V41.7188C31.1719 41.0715 30.6471 40.5469 30 40.5469Z" fill="url(#paint6_linear_34120_1364)"/>
<path id="Vector_8" d="M30 52.9688C29.3529 52.9688 28.8281 53.4934 28.8281 54.1406V58.8281C28.8281 59.4754 29.3529 60 30 60C30.6471 60 31.1719 59.4754 31.1719 58.8281V54.1406C31.1719 53.4934 30.6471 52.9688 30 52.9688Z" fill="url(#paint7_linear_34120_1364)"/>
</g>
</g>
</g>
</g>
<defs>
<linearGradient id="paint0_linear_34120_1364" x1="6.59363" y1="38.2031" x2="9.81069" y2="39.1797" gradientUnits="userSpaceOnUse">
<stop stop-color="#4BD8B5"/>
<stop offset="1" stop-color="#49D6DF"/>
</linearGradient>
<linearGradient id="paint1_linear_34120_1364" x1="-11.2031" y1="-3.15378e-07" x2="71.151" y2="25.004" gradientUnits="userSpaceOnUse">
<stop stop-color="#4BD8B5"/>
<stop offset="1" stop-color="#49D6DF"/>
</linearGradient>
<linearGradient id="paint2_linear_34120_1364" x1="15.7965" y1="11.7187" x2="25.4478" y2="14.6485" gradientUnits="userSpaceOnUse">
<stop stop-color="#4BD8B5"/>
<stop offset="1" stop-color="#49D6DF"/>
</linearGradient>
<linearGradient id="paint3_linear_34120_1364" x1="25.1715" y1="11.7187" x2="34.8227" y2="14.6484" gradientUnits="userSpaceOnUse">
<stop stop-color="#4BD8B5"/>
<stop offset="1" stop-color="#49D6DF"/>
</linearGradient>
<linearGradient id="paint4_linear_34120_1364" x1="34.5465" y1="11.7187" x2="44.1977" y2="14.6484" gradientUnits="userSpaceOnUse">
<stop stop-color="#4BD8B5"/>
<stop offset="1" stop-color="#49D6DF"/>
</linearGradient>
<linearGradient id="paint5_linear_34120_1364" x1="28.3905" y1="28.8281" x2="31.8684" y2="29.18" gradientUnits="userSpaceOnUse">
<stop stop-color="#4BD8B5"/>
<stop offset="1" stop-color="#49D6DF"/>
</linearGradient>
<linearGradient id="paint6_linear_34120_1364" x1="28.3905" y1="40.5469" x2="31.8684" y2="40.8988" gradientUnits="userSpaceOnUse">
<stop stop-color="#4BD8B5"/>
<stop offset="1" stop-color="#49D6DF"/>
</linearGradient>
<linearGradient id="paint7_linear_34120_1364" x1="28.3905" y1="52.9687" x2="31.8684" y2="53.3207" gradientUnits="userSpaceOnUse">
<stop stop-color="#4BD8B5"/>
<stop offset="1" stop-color="#49D6DF"/>
</linearGradient>
<clipPath id="clip0_34120_1364">
<rect width="60" height="60" fill="white"/>
</clipPath>
</defs>
</svg>
