<svg width="65" height="53" viewBox="0 0 65 53" fill="none" xmlns="http://www.w3.org/2000/svg">
<path d="M61.7478 16.0282H55.5102L53.7594 2.81791C53.5087 1.04425 51.8799 -0.199298 50.1029 0.0264574L2.82387 6.29231C1.96706 6.40722 1.19115 6.85846 0.667682 7.54657C0.141914 8.23006 -0.0876347 9.09582 0.0302565 9.94992L4.01959 40.0358C4.23152 41.656 5.61275 42.8675 7.24683 42.8663C7.38681 42.866 7.52652 42.8565 7.66527 42.8381L10.7971 42.425V49.634C10.7971 51.4302 12.2531 52.8862 14.0493 52.8862H61.7478C63.544 52.8862 65 51.4302 65 49.634V19.2804C65 17.4843 63.544 16.0282 61.7478 16.0282ZM53.3236 16.0282H44.8582L53.1773 14.9257L53.3236 16.0282ZM2.17669 9.65723C2.13861 9.37429 2.21585 9.08782 2.39133 8.86261C2.56573 8.63076 2.82577 8.47845 3.11332 8.43983L50.3837 2.17614C50.9781 2.1008 51.5234 2.51545 51.6097 3.10843L52.0379 6.33676L2.60489 12.8921L2.17669 9.65723ZM10.7971 40.2385L7.38667 40.6884C6.79315 40.7672 6.24814 40.35 6.16928 39.7565C6.16928 39.7564 6.16928 39.7562 6.16928 39.7561L3.75074 21.481L10.7971 20.5498V40.2385ZM10.9402 18.3449L3.46022 19.3314L2.89108 15.0428L52.3241 8.48644L52.6493 10.9711L52.89 12.7761L28.3589 16.0282H14.0493C12.6156 16.0308 11.3527 16.9718 10.9402 18.3449ZM62.8319 49.634C62.8319 50.2327 62.3465 50.7181 61.7478 50.7181H14.0493C13.4506 50.7181 12.9652 50.2327 12.9652 49.634V19.3129C12.9652 19.3021 12.9707 19.2912 12.9707 19.2804C12.9707 18.6817 13.456 18.1964 14.0547 18.1964H61.7478C62.3465 18.1964 62.8319 18.6817 62.8319 19.2804V49.634Z" fill="url(#paint0_linear_34120_176)"/>
<path d="M47.5963 32.3131C48.0321 31.9914 48.4174 31.6063 48.7389 31.1705C50.5213 33.5697 53.9111 34.0697 56.3103 32.2873C58.7094 30.5049 59.2094 27.1151 57.427 24.7159C56.4043 23.3395 54.7899 22.5291 53.0752 22.5316C51.3623 22.5363 49.7535 23.3533 48.7389 24.7333C46.9613 22.3246 43.5678 21.8131 41.1591 23.5907C38.7504 25.3683 38.2389 28.7618 40.0165 31.1705C41.7941 33.5791 45.1877 34.0907 47.5963 32.3131ZM53.0752 24.6997C54.8713 24.6997 56.3273 26.1557 56.3273 27.9518C56.3273 29.748 54.8713 31.204 53.0752 31.204C51.279 31.204 49.823 29.748 49.823 27.9518C49.823 26.1557 51.279 24.6997 53.0752 24.6997ZM44.4027 24.6997C46.1988 24.6997 47.6549 26.1557 47.6549 27.9518C47.6549 29.748 46.1988 31.204 44.4027 31.204C42.6066 31.204 41.1505 29.748 41.1505 27.9518C41.1505 26.1557 42.6066 24.6997 44.4027 24.6997Z" fill="url(#paint1_linear_34120_176)"/>
<path d="M19.4699 23.6172H17.3018V25.7853H19.4699V23.6172Z" fill="url(#paint2_linear_34120_176)"/>
<path d="M34.6464 23.6172H21.6377V25.7853H34.6464V23.6172Z" fill="url(#paint3_linear_34120_176)"/>
<path d="M34.6467 27.9531H17.3018V30.1212H34.6467V27.9531Z" fill="url(#paint4_linear_34120_176)"/>
<path d="M57.4119 37.709H18.3858C17.7871 37.709 17.3018 38.1944 17.3018 38.793V45.2974C17.3018 45.8961 17.7871 46.3814 18.3858 46.3814H57.4119C58.0106 46.3814 58.496 45.8961 58.496 45.2974V38.793C58.496 38.1944 58.0107 37.709 57.4119 37.709ZM56.3278 44.2133H19.4699V39.8771H56.3278V44.2133Z" fill="url(#paint5_linear_34120_176)"/>
<defs>
<linearGradient id="paint0_linear_34120_176" x1="-12.1367" y1="-2.78038e-07" x2="73.3983" y2="31.9123" gradientUnits="userSpaceOnUse">
<stop stop-color="#4BD8B5"/>
<stop offset="1" stop-color="#49D6DF"/>
</linearGradient>
<linearGradient id="paint1_linear_34120_176" x1="35.3089" y1="22.5312" x2="57.8516" y2="34.8636" gradientUnits="userSpaceOnUse">
<stop stop-color="#4BD8B5"/>
<stop offset="1" stop-color="#49D6DF"/>
</linearGradient>
<linearGradient id="paint2_linear_34120_176" x1="16.8969" y1="23.6172" x2="19.8729" y2="24.5206" gradientUnits="userSpaceOnUse">
<stop stop-color="#4BD8B5"/>
<stop offset="1" stop-color="#49D6DF"/>
</linearGradient>
<linearGradient id="paint3_linear_34120_176" x1="19.2087" y1="23.6172" x2="23.7257" y2="31.8442" gradientUnits="userSpaceOnUse">
<stop stop-color="#4BD8B5"/>
<stop offset="1" stop-color="#49D6DF"/>
</linearGradient>
<linearGradient id="paint4_linear_34120_176" x1="14.0631" y1="27.9531" x2="17.8329" y2="37.1079" gradientUnits="userSpaceOnUse">
<stop stop-color="#4BD8B5"/>
<stop offset="1" stop-color="#49D6DF"/>
</linearGradient>
<linearGradient id="paint5_linear_34120_176" x1="9.61003" y1="37.709" x2="29.666" y2="66.6278" gradientUnits="userSpaceOnUse">
<stop stop-color="#4BD8B5"/>
<stop offset="1" stop-color="#49D6DF"/>
</linearGradient>
</defs>
</svg>
