<svg width="80" height="80" viewBox="0 0 80 80" fill="none" xmlns="http://www.w3.org/2000/svg">
<g id="problem-solving 1">
<g id="Group">
<path id="Vector" d="M60.7032 55.2291L49.1991 61.1382C48.2029 60.1345 46.8234 59.5119 45.301 59.5119H37.3736C37.0209 59.5119 36.8919 59.4902 36.8531 59.481C36.7813 59.4322 36.6021 59.2636 36.4567 59.1268L36.381 59.0554C29.9285 52.9791 24.4761 53.3645 18.2751 55.8119C17.3047 56.1947 17.2863 56.1955 16.3244 56.2394L14.5781 56.2416C14.033 54.6965 12.5603 53.5859 10.8327 53.5859H4.99985C2.80995 53.5859 1.02832 55.3696 1.02832 57.562V72.8592C1.02832 75.0492 2.80995 76.8309 4.99985 76.8309H10.8325C12.5603 76.8309 14.033 75.7216 14.5781 74.178H17.7856C18.1487 74.2094 18.5028 74.2833 18.8479 74.3996L33.9311 78.4328C34.5915 78.6119 35.1979 78.7881 35.7844 78.9586C37.7323 79.5246 39.3697 80.0004 41.077 80.0002C43.0058 80.0002 45.0237 79.3929 47.6782 77.6222C47.6915 77.6133 47.7046 77.6044 47.7176 77.5952L66.3148 64.3521C68.7594 62.608 69.472 59.4599 67.9718 57.0281C66.4889 54.6306 63.3631 53.8576 60.7032 55.2291ZM11.6792 72.8594C11.6792 73.3184 11.2914 73.7062 10.8325 73.7062H4.99985C4.5408 73.7062 4.15317 73.3184 4.15317 72.8594V57.5621C4.15317 57.1008 4.54096 56.7109 4.99985 56.7109H10.8325C11.2916 56.7109 11.6792 57.1008 11.6792 57.5621V72.8594ZM64.5008 61.8077L45.9244 75.036C42.1433 77.5526 40.5342 77.0848 36.656 75.958C36.0563 75.7837 35.4362 75.6036 34.7434 75.4156L19.6562 71.3813C19.0492 71.193 18.4254 71.0837 17.7853 71.0533H14.8041V59.3681L16.4666 59.3611C17.6558 59.3069 18.0245 59.27 19.422 58.7188C24.7967 56.5974 28.9443 56.3447 34.24 61.3316L34.3148 61.402C35.2267 62.2605 35.7916 62.6366 37.3736 62.6366H45.301C46.608 62.6366 47.6712 63.7 47.6712 65.0069C47.6712 66.3116 46.608 67.3729 45.301 67.3729H32.449C31.586 67.3729 30.8865 68.0724 30.8865 68.9353C30.8865 69.7983 31.586 70.4978 32.449 70.4978H45.301C48.331 70.4978 50.796 68.0346 50.796 65.0069C50.796 64.6241 50.7564 64.2504 50.6815 63.8895L62.1328 58.0074C63.1767 57.4695 64.6046 57.5247 65.313 58.6704C65.9376 59.683 65.588 61.0321 64.5008 61.8077Z" fill="url(#paint0_linear_34105_1301)"/>
<path id="Vector_2" d="M36.9923 36.9558C35.301 37.7797 34.1325 39.5162 34.1325 41.5206C34.1325 43.7307 35.5555 45.6137 37.5337 46.3062V48.6332C37.5337 51.4826 39.8498 53.8008 42.6966 53.8008H49.6186C52.4678 53.8008 54.786 51.4826 54.786 48.6332V46.3062C56.7642 45.6137 58.1872 43.7305 58.1872 41.5206C58.1872 39.516 57.0187 37.7795 55.3272 36.9557C56.0114 34.4139 57.3983 32.5214 58.857 30.5361C61.101 27.4822 63.6443 24.0208 63.6388 17.9238C63.6388 17.3794 63.6163 16.8207 63.572 16.2631C63.5035 15.4028 62.7525 14.763 61.8905 14.8294C61.0304 14.8978 60.3885 15.6506 60.457 16.5109C60.4948 16.9863 60.514 17.4616 60.514 17.925C60.5185 22.9973 58.4883 25.7604 56.3387 28.6858C54.7077 30.9055 53.0292 33.1937 52.2294 36.4459H40.0897C39.2899 33.194 37.6109 30.906 35.9795 28.6864C33.8293 25.7611 31.7985 22.9979 31.8052 17.9255C31.8121 12.5169 34.1293 9.10109 36.0722 7.18806C38.7474 4.55381 42.4117 3.07326 46.1375 3.12576C46.1525 3.12592 46.1673 3.12592 46.1823 3.12576C49.218 3.07967 52.2625 4.06915 54.748 5.90672C55.4416 6.41966 56.4203 6.27295 56.9332 5.57923C57.4462 4.88536 57.2996 3.90697 56.6057 3.39403C53.5795 1.15695 49.8706 -0.0465861 46.1595 0.00138035C41.6146 -0.0540857 37.1412 1.75067 33.88 4.96208C30.4851 8.30504 28.6872 12.7865 28.6807 17.9219C28.6726 24.0215 31.2171 27.4833 33.462 30.5375C34.9208 32.5223 36.3081 34.4145 36.9923 36.9558ZM51.6613 48.6334C51.6613 49.7597 50.7451 50.6761 49.6187 50.6761H42.6967C41.5729 50.6761 40.6587 49.7597 40.6587 48.6334V46.5908H51.6613V48.6334ZM39.2069 39.571H53.1129C54.1879 39.571 55.0625 40.4457 55.0625 41.5206C55.0625 42.5932 54.188 43.4658 53.1129 43.4658H39.2069C38.1319 43.4658 37.2573 42.5932 37.2573 41.5206C37.2573 40.4457 38.1319 39.571 39.2069 39.571Z" fill="url(#paint1_linear_34105_1301)"/>
<path id="Vector_3" d="M47.7225 11.414C47.7225 10.5511 47.023 9.85156 46.1601 9.85156C45.2972 9.85156 44.5977 10.5511 44.5977 11.414V21.1043C44.5977 21.9672 45.2972 22.6667 46.1601 22.6667C47.023 22.6667 47.7225 21.9672 47.7225 21.1043V11.414Z" fill="url(#paint2_linear_34105_1301)"/>
<path id="Vector_4" d="M46.1602 26.6094C45.2972 26.6094 44.5977 27.3089 44.5977 28.1719V28.1808C44.5977 29.0437 45.2972 29.7389 46.1602 29.7389C47.0231 29.7389 47.7227 29.035 47.7227 28.172C47.7227 27.3091 47.0231 26.6094 46.1602 26.6094Z" fill="url(#paint3_linear_34105_1301)"/>
<path id="Vector_5" d="M77.4092 17.9121H71.0629C70.2 17.9121 69.5005 18.6116 69.5005 19.4745C69.5005 20.3375 70.2 21.037 71.0629 21.037H77.4092C78.2721 21.037 78.9716 20.3375 78.9716 19.4745C78.9716 18.6116 78.2721 17.9121 77.4092 17.9121Z" fill="url(#paint4_linear_34105_1301)"/>
<path id="Vector_6" d="M68.4377 7.84684C68.737 7.84684 69.0397 7.7609 69.3069 7.58154L74.5725 4.04733C75.2891 3.56642 75.48 2.59584 74.9991 1.87931C74.5183 1.16294 73.5477 0.971859 72.8311 1.45277L67.5654 4.98698C66.8489 5.46789 66.6579 6.43862 67.1388 7.15499C67.4406 7.60419 67.9344 7.84684 68.4377 7.84684Z" fill="url(#paint5_linear_34105_1301)"/>
<path id="Vector_7" d="M74.573 34.901L69.3073 31.3668C68.5908 30.8859 67.6201 31.077 67.1393 31.7934C66.6584 32.5097 66.8495 33.4805 67.5658 33.9614L72.8315 37.4956C73.0987 37.675 73.4013 37.7609 73.7007 37.7609C74.2039 37.7609 74.698 37.5183 74.9995 37.0691C75.4804 36.3525 75.2895 35.3818 74.573 34.901Z" fill="url(#paint6_linear_34105_1301)"/>
<path id="Vector_8" d="M14.9111 21.037H21.2529C22.1159 21.037 22.8154 20.3375 22.8154 19.4745C22.8154 18.6116 22.1159 17.9121 21.2529 17.9121H14.9111C14.0481 17.9121 13.3486 18.6116 13.3486 19.4745C13.3486 20.3375 14.0481 21.037 14.9111 21.037Z" fill="url(#paint7_linear_34105_1301)"/>
<path id="Vector_9" d="M17.7475 4.04733L23.0132 7.58154C23.2804 7.7609 23.583 7.84684 23.8824 7.84684C24.3856 7.84684 24.8797 7.60419 25.1812 7.15499C25.6621 6.43862 25.4711 5.46789 24.7547 4.98698L19.489 1.45277C18.7725 0.971859 17.8019 1.16294 17.321 1.87931C16.8401 2.59569 17.031 3.56642 17.7475 4.04733Z" fill="url(#paint8_linear_34105_1301)"/>
<path id="Vector_10" d="M23.0132 31.3668L17.7475 34.901C17.031 35.382 16.8401 36.3527 17.321 37.0691C17.6225 37.5183 18.1164 37.7609 18.6198 37.7609C18.9192 37.7609 19.2218 37.675 19.489 37.4956L24.7547 33.9614C25.4712 33.4805 25.6621 32.5097 25.1812 31.7934C24.7003 31.077 23.7296 30.8859 23.0132 31.3668Z" fill="url(#paint9_linear_34105_1301)"/>
<path id="Vector_11" d="M58.9748 10.8183C59.2795 11.1228 59.6778 11.2749 60.0764 11.2749C60.4764 11.2749 60.8767 11.1218 61.1824 10.8161C61.7925 10.206 61.7903 9.21441 61.1802 8.6041C60.57 7.99395 59.5806 7.99395 58.9703 8.6041C58.3602 9.21426 58.3602 10.2036 58.9703 10.8139L58.9748 10.8183Z" fill="url(#paint10_linear_34105_1301)"/>
</g>
</g>
<defs>
<linearGradient id="paint0_linear_34105_1301" x1="-11.6174" y1="53.5859" x2="51.6089" y2="102.796" gradientUnits="userSpaceOnUse">
<stop stop-color="#4BD8B5"/>
<stop offset="1" stop-color="#49D6DF"/>
</linearGradient>
<linearGradient id="paint1_linear_34105_1301" x1="22.1533" y1="-2.82846e-07" x2="72.5965" y2="9.94958" gradientUnits="userSpaceOnUse">
<stop stop-color="#4BD8B5"/>
<stop offset="1" stop-color="#49D6DF"/>
</linearGradient>
<linearGradient id="paint2_linear_34105_1301" x1="44.0142" y1="9.85156" x2="48.6731" y2="10.1964" gradientUnits="userSpaceOnUse">
<stop stop-color="#4BD8B5"/>
<stop offset="1" stop-color="#49D6DF"/>
</linearGradient>
<linearGradient id="paint3_linear_34105_1301" x1="44.0142" y1="26.6094" x2="48.3046" y2="27.9099" gradientUnits="userSpaceOnUse">
<stop stop-color="#4BD8B5"/>
<stop offset="1" stop-color="#49D6DF"/>
</linearGradient>
<linearGradient id="paint4_linear_34105_1301" x1="67.7321" y1="17.9121" x2="75.4212" y2="24.9866" gradientUnits="userSpaceOnUse">
<stop stop-color="#4BD8B5"/>
<stop offset="1" stop-color="#49D6DF"/>
</linearGradient>
<linearGradient id="paint5_linear_34105_1301" x1="65.3068" y1="1.1875" x2="76.2801" y2="5.38466" gradientUnits="userSpaceOnUse">
<stop stop-color="#4BD8B5"/>
<stop offset="1" stop-color="#49D6DF"/>
</linearGradient>
<linearGradient id="paint6_linear_34105_1301" x1="65.3073" y1="31.1016" x2="76.2806" y2="35.2987" gradientUnits="userSpaceOnUse">
<stop stop-color="#4BD8B5"/>
<stop offset="1" stop-color="#49D6DF"/>
</linearGradient>
<linearGradient id="paint7_linear_34105_1301" x1="11.581" y1="17.9121" x2="19.2699" y2="24.983" gradientUnits="userSpaceOnUse">
<stop stop-color="#4BD8B5"/>
<stop offset="1" stop-color="#49D6DF"/>
</linearGradient>
<linearGradient id="paint8_linear_34105_1301" x1="15.4889" y1="1.1875" x2="26.4622" y2="5.38465" gradientUnits="userSpaceOnUse">
<stop stop-color="#4BD8B5"/>
<stop offset="1" stop-color="#49D6DF"/>
</linearGradient>
<linearGradient id="paint9_linear_34105_1301" x1="15.4889" y1="31.1016" x2="26.4623" y2="35.2987" gradientUnits="userSpaceOnUse">
<stop stop-color="#4BD8B5"/>
<stop offset="1" stop-color="#49D6DF"/>
</linearGradient>
<linearGradient id="paint10_linear_34105_1301" x1="57.929" y1="8.14648" x2="62.2205" y2="9.4483" gradientUnits="userSpaceOnUse">
<stop stop-color="#4BD8B5"/>
<stop offset="1" stop-color="#49D6DF"/>
</linearGradient>
</defs>
</svg>
