<svg width="245" height="55" viewBox="0 0 245 55" fill="none" xmlns="http://www.w3.org/2000/svg">
<rect width="245" height="55" rx="3" fill="url(#paint0_linear_101_627)"/>
<circle cx="55" cy="28" r="15.5" stroke="white"/>
<path d="M60 28L52.5 32.3301V23.6699L60 28Z" fill="white"/>
<path d="M87.1318 30.2275L88.5996 22.2031H91.6582L88.9424 35H85.7432L84.0293 27.7051L82.3506 35H79.1602L76.4355 22.2031H79.5029L80.9707 30.2275L82.7285 22.2031H85.3477L87.1318 30.2275ZM99.7441 32.6094H95.5166L94.7783 35H91.4824L96.1758 22.2031H99.0762L103.805 35H100.491L99.7441 32.6094ZM96.2549 30.2275H99.0059L97.626 25.7891L96.2549 30.2275ZM113.736 24.585H109.896V35H106.811V24.585H103.04V22.2031H113.736V24.585ZM125.153 30.667C125.112 31.5576 124.872 32.3457 124.433 33.0312C123.993 33.7109 123.375 34.2383 122.578 34.6133C121.787 34.9883 120.882 35.1758 119.862 35.1758C118.181 35.1758 116.856 34.6279 115.89 33.5322C114.923 32.4365 114.439 30.8896 114.439 28.8916V28.2588C114.439 27.0049 114.656 25.9092 115.09 24.9717C115.529 24.0283 116.159 23.3018 116.979 22.792C117.8 22.2764 118.749 22.0186 119.827 22.0186C121.38 22.0186 122.628 22.4287 123.571 23.249C124.515 24.0635 125.051 25.1885 125.18 26.624H122.104C122.08 25.8447 121.884 25.2852 121.515 24.9453C121.146 24.6055 120.583 24.4355 119.827 24.4355C119.06 24.4355 118.497 24.7227 118.14 25.2969C117.782 25.8711 117.595 26.7881 117.577 28.0479V28.9531C117.577 30.3184 117.747 31.2939 118.087 31.8799C118.433 32.4658 119.024 32.7588 119.862 32.7588C120.571 32.7588 121.113 32.5918 121.488 32.2578C121.863 31.9238 122.062 31.3936 122.086 30.667H125.153ZM137.309 35H134.241V29.6562H129.697V35H126.612V22.2031H129.697V27.2832H134.241V22.2031H137.309V35ZM154.588 28.8652C154.588 30.1133 154.356 31.2178 153.894 32.1787C153.431 33.1396 152.771 33.8809 151.916 34.4023C151.066 34.918 150.097 35.1758 149.007 35.1758C147.917 35.1758 146.95 34.9268 146.106 34.4287C145.263 33.9248 144.604 33.207 144.129 32.2754C143.66 31.3438 143.414 30.2744 143.391 29.0674V28.3467C143.391 27.0928 143.619 25.9883 144.076 25.0332C144.539 24.0723 145.198 23.3311 146.054 22.8096C146.915 22.2881 147.894 22.0273 148.989 22.0273C150.073 22.0273 151.04 22.2852 151.89 22.8008C152.739 23.3164 153.398 24.0518 153.867 25.0068C154.342 25.9561 154.582 27.0459 154.588 28.2764V28.8652ZM151.45 28.3291C151.45 27.0576 151.236 26.0938 150.809 25.4375C150.387 24.7754 149.78 24.4443 148.989 24.4443C147.442 24.4443 146.625 25.6045 146.537 27.9248L146.528 28.8652C146.528 30.1191 146.736 31.083 147.152 31.7568C147.568 32.4307 148.187 32.7676 149.007 32.7676C149.786 32.7676 150.387 32.4365 150.809 31.7744C151.23 31.1123 151.444 30.1602 151.45 28.918V28.3291ZM166.866 35H163.799L159.264 27.0371V35H156.179V22.2031H159.264L163.79 30.166V22.2031H166.866V35ZM171.902 32.627H177.272V35H168.817V22.2031H171.902V32.627ZM181.86 35H178.784V22.2031H181.86V35ZM194.692 35H191.625L187.09 27.0371V35H184.005V22.2031H187.09L191.616 30.166V22.2031H194.692V35ZM204.58 29.5771H199.729V32.627H205.459V35H196.644V22.2031H205.477V24.585H199.729V27.2832H204.58V29.5771Z" fill="white"/>
<defs>
<linearGradient id="paint0_linear_101_627" x1="-45.7461" y1="-2.89151e-07" x2="84.1037" y2="175.585" gradientUnits="userSpaceOnUse">
<stop stop-color="#4BD8B5"/>
<stop offset="1" stop-color="#49D6DF"/>
</linearGradient>
</defs>
</svg>
