<svg width="30" height="30" viewBox="0 0 30 30" fill="none" xmlns="http://www.w3.org/2000/svg">
<g id="right-arrow ">
<g id="Group">
<g id="Group_2">
<path id="Vector" d="M23.3337 13.8294L9.98332 0.479264C9.67454 0.170243 9.26235 0 8.82284 0C8.38334 0 7.97114 0.170243 7.66237 0.479264L6.6792 1.46218C6.03945 2.10267 6.03945 3.14363 6.6792 3.78314L17.8898 14.9938L6.66676 26.2169C6.35799 26.5259 6.1875 26.9378 6.1875 27.3771C6.1875 27.8168 6.35799 28.2288 6.66676 28.5381L7.64993 29.5207C7.95895 29.8298 8.3709 30 8.81041 30C9.24991 30 9.66211 29.8298 9.97088 29.5207L23.3337 16.1584C23.6432 15.8484 23.8132 15.4345 23.8122 14.9945C23.8132 14.5528 23.6432 14.1392 23.3337 13.8294Z" fill="#828282"/>
</g>
</g>
</g>
</svg>
